<?xml version="1.0" standalone="no"?>
<!DOCTYPE svg PUBLIC "-//W3C//DTD SVG 20010904//EN"
 "http://www.w3.org/TR/2001/REC-SVG-20010904/DTD/svg10.dtd">
<svg version="1.0" xmlns="http://www.w3.org/2000/svg"
 width="512.000000pt" height="512.000000pt" viewBox="0 0 512.000000 512.000000"
 preserveAspectRatio="xMidYMid meet">

<g transform="translate(0.000000,512.000000) scale(0.100000,-0.100000)"
fill="#000000" stroke="none">
<path d="M2365 4920 c-307 -27 -567 -101 -850 -240 -1439 -706 -1771 -2614
-656 -3764 696 -717 1738 -921 2661 -521 115 49 214 104 345 191 145 95 228
163 353 287 137 135 217 231 319 385 190 285 317 620 370 972 24 160 24 502
-1 660 -61 403 -214 773 -453 1092 -98 131 -339 372 -468 469 -336 250 -727
408 -1134 458 -124 16 -371 21 -486 11z m340 -120 c549 -40 1028 -252 1419
-630 188 -182 332 -381 452 -623 420 -854 259 -1866 -406 -2551 -351 -362
-801 -590 -1306 -662 -160 -23 -448 -23 -608 0 -977 140 -1745 884 -1910 1851
-41 241 -40 530 4 772 183 1012 1027 1769 2055 1843 150 11 149 11 300 0z"/>
<path d="M2597 4764 c-4 -4 -7 -16 -7 -26 0 -13 8 -18 31 -18 26 0 30 3 27 23
-3 22 -36 36 -51 21z"/>
<path d="M2369 4689 c-14 -5 -31 -21 -38 -36 -15 -33 6 -69 53 -88 59 -25 72
-65 21 -65 -14 0 -32 11 -44 27 -25 31 -39 24 -25 -15 7 -21 17 -28 43 -30 69
-7 111 19 111 67 0 32 -20 53 -72 74 -39 16 -50 43 -22 54 9 3 27 -6 45 -23
l29 -28 0 31 c0 23 -5 32 -22 37 -30 8 -47 7 -79 -5z"/>
<path d="M2568 4688 c7 -7 12 -43 12 -93 0 -50 -5 -86 -12 -93 -9 -9 -1 -12
38 -12 l49 0 -3 95 c-2 63 0 95 7 95 6 0 11 5 11 10 0 6 -26 10 -57 10 -44 0
-54 -3 -45 -12z"/>
<path d="M2746 4665 c-9 -37 0 -43 22 -15 10 13 23 20 29 17 13 -8 -10 -166
-26 -177 -9 -5 -5 -9 11 -13 32 -9 96 -8 81 1 -17 11 5 172 24 172 7 0 19 -12
25 -27 l11 -28 7 25 c14 44 11 47 -47 54 -32 4 -74 9 -94 12 -33 6 -37 4 -43
-21z"/>
<path d="M2083 4647 c-29 -5 -53 -14 -53 -18 0 -5 4 -9 9 -9 4 0 16 -37 25
-82 13 -65 13 -84 3 -96 -10 -13 -7 -14 28 -8 73 13 77 15 60 32 -16 16 -21
74 -7 74 5 0 16 -16 25 -35 19 -40 36 -50 72 -41 l24 6 -22 38 c-12 20 -28 42
-35 48 -12 8 -11 12 2 23 22 18 20 58 -3 71 -23 12 -56 11 -128 -3z m72 -31
c17 -25 11 -56 -11 -56 -16 0 -29 43 -20 65 7 20 13 19 31 -9z"/>
<path d="M3026 4636 c9 -23 -25 -159 -44 -173 -18 -15 -20 -13 85 -42 l72 -19
10 30 c14 40 6 47 -19 20 -24 -25 -30 -27 -52 -9 -12 9 -13 19 -6 45 10 37 21
40 41 11 16 -22 21 -19 31 24 6 27 -2 35 -20 17 -18 -18 -37 6 -29 39 4 17 10
31 14 31 16 0 51 -32 51 -48 0 -20 15 -5 24 24 5 18 -1 22 -66 39 -40 10 -79
20 -86 23 -8 3 -10 -1 -6 -12z"/>
<path d="M1842 4573 c-59 -20 -70 -27 -59 -37 8 -6 26 -45 40 -88 19 -58 22
-79 13 -88 -8 -10 -8 -12 4 -8 8 3 47 15 85 28 39 12 72 24 73 26 2 1 1 16 -3
33 -7 34 -25 42 -25 12 0 -22 -25 -51 -45 -51 -11 0 -35 48 -35 71 0 13 34 11
48 -3 15 -15 16 0 2 38 -6 16 -7 31 -1 38 9 12 -3 57 -16 55 -4 0 -41 -12 -81
-26z m75 -14 c14 -14 5 -47 -17 -59 -15 -8 -20 -4 -29 21 -6 17 -8 35 -5 40 7
12 38 11 51 -2z"/>
<path d="M3275 4535 c-32 -31 -31 -47 3 -87 36 -42 44 -64 28 -77 -22 -18 -44
-2 -59 42 l-15 42 -11 -29 c-13 -33 -4 -49 40 -72 39 -20 75 -18 99 6 28 28
25 64 -10 103 -37 42 -40 70 -7 65 15 -2 25 -14 33 -37 11 -34 11 -34 23 -12
17 31 8 49 -34 66 -47 20 -62 19 -90 -10z"/>
<path d="M3546 4511 c-11 -17 6 -41 29 -41 30 0 41 16 25 35 -14 17 -46 20
-54 6z"/>
<path d="M1645 4493 c-24 -14 -26 -18 -13 -21 10 -2 20 -13 23 -25 3 -12 9
-42 14 -67 l10 -45 -45 48 c-28 29 -44 54 -40 62 7 20 -7 19 -54 -5 l-38 -19
78 -77 c65 -63 82 -75 100 -69 21 7 22 10 14 79 -5 39 -8 90 -8 114 0 47 0 47
-41 25z"/>
<path d="M3503 4465 c8 -20 -56 -150 -80 -163 -14 -8 -10 -13 25 -31 48 -25
63 -26 56 -6 -8 19 65 153 85 158 10 2 -6 15 -38 31 -42 22 -52 24 -48 11z"/>
<path d="M2398 4419 c-447 -39 -861 -237 -1173 -560 -161 -166 -248 -291 -346
-494 -294 -607 -233 -1332 159 -1885 140 -197 373 -410 584 -533 849 -496
1940 -243 2489 576 498 744 399 1729 -238 2360 -319 316 -711 497 -1166 537
-124 11 -181 11 -309 -1z m112 -121 c0 -7 -29 -103 -63 -213 -88 -275 -83
-256 -59 -222 10 15 34 39 52 52 44 32 44 33 81 145 17 52 35 99 39 103 3 4
15 -21 25 -55 26 -88 50 -133 84 -157 63 -45 63 -32 -2 163 -34 102 -59 187
-57 189 10 10 217 -14 304 -34 50 -12 143 -39 206 -61 179 -61 445 -198 424
-217 -5 -5 -99 -73 -209 -153 -110 -79 -261 -188 -336 -243 l-137 -99 16 -33
c9 -18 18 -33 22 -33 3 0 141 98 305 219 165 120 301 217 303 216 2 -2 -42
-144 -98 -317 -56 -172 -108 -334 -116 -360 l-16 -48 -144 0 c-139 0 -144 -1
-144 -21 0 -11 5 -29 10 -40 10 -17 22 -19 130 -19 66 0 120 -1 120 -3 0 -1
-20 -65 -44 -142 -30 -91 -42 -144 -36 -154 14 -26 81 -85 155 -136 93 -64 92
-63 69 -79 -19 -14 -19 -15 5 -40 28 -30 38 -32 62 -10 16 14 41 -2 325 -208
l309 -223 -382 -3 -381 -2 -11 -51 c-15 -71 -15 -74 24 -130 19 -28 35 -57 35
-64 0 -16 28 -40 37 -32 3 4 -8 49 -24 102 l-31 95 420 0 421 0 -6 -30 c-17
-85 -164 -345 -264 -470 -87 -108 -287 -300 -312 -300 -8 0 -32 77 -46 150
-10 48 -41 106 -60 114 -16 6 -65 9 -65 4 0 -2 14 -45 30 -97 16 -52 29 -96
27 -97 -1 -1 -72 47 -156 107 l-155 109 -60 0 c-35 0 -56 -4 -51 -9 6 -5 93
-68 195 -141 102 -73 204 -148 228 -166 l44 -33 -49 -31 c-69 -44 -275 -144
-363 -175 -125 -44 -289 -82 -408 -95 -63 -6 -116 -9 -120 -6 -3 4 40 148 96
320 56 173 102 319 102 325 0 8 -13 11 -37 9 l-36 -3 -88 -260 c-82 -247 -87
-259 -99 -230 -6 17 -48 139 -92 273 l-80 242 -40 0 c-28 0 -39 -4 -35 -12 18
-49 207 -647 207 -656 0 -15 -6 -15 -128 -1 -241 27 -559 139 -770 273 l-43
27 63 47 c35 26 146 108 246 182 l184 135 -62 3 -61 3 -162 -120 c-89 -65
-163 -118 -164 -117 -1 1 16 58 38 125 43 133 42 141 -11 141 -24 0 -29 -9
-74 -147 -69 -211 -62 -196 -86 -183 -12 6 -69 57 -127 113 -153 147 -257 286
-342 455 -40 81 -91 199 -91 214 0 4 190 8 421 8 l421 0 -7 -22 c-4 -13 -9
-37 -12 -55 -5 -28 -3 -31 16 -26 32 8 81 58 81 82 0 20 5 21 95 21 94 0 95 0
95 24 0 51 -7 56 -87 56 -56 0 -74 3 -70 13 2 6 23 70 46 141 39 119 41 130
27 152 -24 36 -64 70 -153 131 -45 30 -80 59 -78 63 3 4 48 39 101 76 53 38
107 85 121 104 l23 36 -40 128 c-23 70 -44 134 -47 142 -4 11 6 14 46 14 l51
0 0 41 0 40 -60 -2 c-33 -1 -62 0 -65 3 -6 6 -235 721 -232 724 1 1 95 -65
210 -147 114 -82 210 -149 212 -149 3 0 5 8 5 18 0 10 5 23 12 30 17 17 10 22
-247 207 -121 87 -224 161 -229 166 -11 10 156 107 269 157 186 81 394 139
550 152 50 4 96 8 103 9 6 0 12 -5 12 -11z m-880 -753 c71 -217 130 -397 130
-400 0 -3 -189 -5 -420 -5 -231 0 -420 2 -420 5 0 15 53 142 90 215 50 100
121 208 198 303 57 70 268 277 283 277 4 0 67 -178 139 -395z m2142 267 c123
-119 228 -252 305 -387 57 -99 123 -244 123 -269 0 -14 -43 -16 -419 -16
l-420 0 24 73 c13 39 70 214 125 387 55 173 103 321 105 328 8 21 38 -1 157
-116z m-1941 -879 c23 -71 44 -133 46 -138 2 -6 -50 -50 -116 -98 l-120 -88
-293 212 c-161 116 -300 218 -308 225 -12 12 43 14 367 14 l381 0 43 -127z
m2233 99 c-21 -16 -162 -117 -312 -226 l-272 -197 -121 87 c-81 59 -118 92
-115 101 3 8 24 70 47 139 l40 124 386 0 386 0 -39 -28z m-2826 -227 c308
-223 330 -241 314 -256 -30 -29 -651 -479 -661 -479 -5 0 -18 39 -30 88 -36
154 -44 254 -38 462 6 187 10 222 54 408 3 13 11 22 18 20 7 -2 161 -111 343
-243z m3020 168 c12 -43 26 -116 32 -163 15 -110 15 -391 0 -500 -13 -102 -49
-240 -61 -240 -7 0 -562 398 -657 471 -22 17 -22 18 310 262 183 135 338 246
344 246 7 1 21 -34 32 -76z m-2497 -550 c66 -48 118 -92 116 -98 -2 -5 -23
-67 -46 -137 l-43 -128 -380 0 c-210 0 -378 3 -374 8 8 8 599 440 604 441 2 1
58 -38 123 -86z"/>
<path d="M2478 3854 c-48 -46 -48 -46 -48 -113 0 -88 -18 -115 -69 -108 -20 3
-45 2 -55 -2 -11 -4 -41 -1 -67 6 -42 12 -51 12 -78 -2 -17 -8 -37 -28 -45
-44 -13 -25 -13 -34 0 -77 18 -59 13 -92 -33 -239 -46 -147 -51 -214 -24 -285
17 -44 21 -77 21 -164 0 -102 1 -110 26 -140 15 -17 38 -33 52 -36 14 -3 28
-12 32 -20 4 -8 12 -25 18 -37 7 -13 12 -54 12 -92 0 -63 -4 -79 -45 -158 -40
-77 -45 -95 -45 -153 0 -54 -4 -69 -20 -83 -18 -16 -20 -25 -14 -77 5 -47 3
-65 -10 -84 -10 -17 -16 -47 -16 -89 0 -36 -6 -71 -13 -81 -12 -16 -17 -15
-72 18 -52 32 -67 36 -124 36 -63 -1 -70 -3 -163 -63 -139 -89 -218 -153 -218
-177 0 -21 33 -29 45 -10 9 14 105 12 206 -5 90 -14 753 -25 766 -12 3 4 12 2
20 -5 10 -8 136 -13 441 -15 315 -3 446 -8 499 -19 98 -19 177 -18 198 2 15
15 15 18 -1 35 -9 10 -49 29 -88 41 -39 12 -79 31 -89 42 -46 54 -61 66 -106
87 -44 19 -49 25 -54 60 -3 21 -19 62 -37 90 -27 44 -31 58 -26 93 4 23 9 115
12 206 5 142 9 169 26 192 26 37 40 35 72 -7 28 -36 69 -47 79 -21 7 16 -105
127 -152 151 -42 21 -143 17 -167 -6 -13 -14 -13 -18 5 -40 18 -21 22 -23 42
-11 15 10 24 11 32 3 15 -15 -4 -139 -43 -295 -16 -65 -30 -140 -30 -166 0
-27 -5 -52 -10 -55 -6 -4 -31 11 -55 32 l-44 38 5 255 6 255 -56 89 c-31 49
-56 95 -56 103 0 8 12 35 26 59 40 68 42 146 8 259 -15 51 -27 118 -28 155 -2
59 -9 80 -79 225 -43 88 -90 173 -105 188 -23 25 -27 37 -27 90 -2 174 -1 171
-46 200 -31 21 -53 27 -92 27 -48 0 -56 -4 -99 -46z m235 -1417 c38 -32 47
-47 61 -102 20 -80 20 -109 1 -125 -18 -15 -21 -150 -5 -166 7 -7 10 -49 8
-105 l-3 -94 -29 -3 c-21 -3 -35 3 -50 21 -22 26 -72 47 -112 47 -13 0 -47
-21 -81 -51 -32 -28 -71 -57 -86 -65 -26 -14 -30 -13 -55 8 -26 21 -27 26 -23
99 2 59 -1 82 -14 102 -20 32 -13 58 24 90 40 33 52 60 61 132 5 43 27 105 68
196 33 74 62 143 66 153 6 17 14 12 65 -40 33 -32 79 -76 104 -97z"/>
<path d="M2346 3772 c-19 -71 -19 -72 -2 -72 9 0 15 19 19 62 3 35 4 64 3 66
-2 1 -11 -24 -20 -56z"/>
<path d="M1331 4396 c-15 -18 -3 -46 20 -46 20 0 39 28 32 48 -6 16 -38 15
-52 -2z"/>
<path d="M1383 4344 c-24 -14 -43 -30 -43 -36 0 -5 4 -6 10 -3 13 8 103 -133
96 -151 -8 -21 4 -17 54 16 25 16 38 30 29 30 -19 0 -103 126 -101 153 0 9 0
17 -1 17 -1 -1 -21 -12 -44 -26z"/>
<path d="M3820 4275 c0 -21 -89 -135 -112 -144 -15 -5 -8 -14 36 -49 73 -57
99 -65 140 -48 35 15 76 70 76 103 0 26 -28 61 -90 113 -37 31 -50 37 -50 25z
m80 -94 c0 -46 -57 -110 -97 -111 -34 0 -28 22 23 84 51 63 74 71 74 27z"/>
<path d="M1233 4235 c-27 -23 -27 -24 -6 -25 19 0 79 -57 70 -66 -2 -2 -31 5
-65 17 l-61 21 -37 -28 c-32 -25 -34 -29 -16 -35 25 -10 112 -112 112 -133 0
-23 13 -20 41 10 22 25 23 26 3 20 -16 -5 -29 4 -63 44 -23 27 -38 50 -33 50
5 0 42 -11 82 -25 86 -29 81 -29 104 -12 16 12 13 19 -43 85 -36 44 -58 79
-54 87 8 21 -2 19 -34 -10z"/>
<path d="M1002 4024 c-34 -41 -40 -56 -19 -49 16 6 130 -100 125 -117 -10 -28
-44 -17 -101 33 -31 28 -55 55 -51 60 3 5 1 9 -5 9 -5 0 -24 -19 -43 -42 -18
-24 -26 -39 -17 -36 10 4 36 -11 73 -43 71 -61 95 -62 147 -10 55 55 53 83
-12 146 -28 28 -54 58 -58 69 -7 16 -11 14 -39 -20z"/>
<path d="M933 4034 c-6 -17 14 -36 32 -31 6 2 11 13 13 25 3 17 -2 22 -18 22
-11 0 -23 -7 -27 -16z"/>
<path d="M4021 3981 c-46 -22 -90 -37 -99 -33 -11 4 -13 1 -7 -9 23 -40 61
-67 49 -35 -3 9 4 19 17 26 19 11 25 10 36 -6 17 -23 13 -36 -15 -50 -21 -10
-20 -12 18 -49 32 -31 40 -35 40 -21 0 11 21 55 46 99 35 61 44 84 37 96 -16
26 -34 23 -122 -18z m43 -26 c-16 -25 -34 -29 -41 -9 -2 6 7 16 19 22 36 17
40 14 22 -13z"/>
<path d="M883 3974 c-3 -8 -1 -20 6 -27 14 -14 47 15 37 32 -10 16 -36 13 -43
-5z"/>
<path d="M4330 3817 c0 -27 41 -77 64 -77 23 0 8 28 -17 32 -17 2 -22 10 -22
32 0 16 -6 31 -12 33 -8 3 -13 -5 -13 -20z"/>
<path d="M4183 3800 c-60 -36 -70 -99 -27 -162 33 -47 51 -53 96 -29 l36 18
-27 41 c-25 39 -27 40 -36 20 -14 -31 -42 -45 -57 -30 -9 9 -8 18 9 39 25 34
103 76 126 67 22 -8 30 -39 17 -64 -15 -27 -8 -35 19 -20 27 14 27 36 -1 76
-43 63 -98 79 -155 44z"/>
<path d="M702 3619 c-18 -28 -19 -35 -7 -37 9 -2 25 -22 36 -44 11 -22 17 -38
12 -36 -47 22 -63 33 -66 47 -2 10 -14 -5 -31 -38 -22 -43 -24 -53 -11 -47 20
7 154 -60 163 -82 3 -10 12 -2 28 24 27 44 31 66 10 58 -8 -3 -27 1 -43 10
l-28 15 46 1 c34 0 51 6 66 23 42 47 40 48 -39 41 -84 -7 -92 -2 -106 61 l-8
39 -22 -35z"/>
<path d="M4332 3553 c-64 -31 -76 -97 -31 -169 22 -37 44 -42 75 -19 18 14 18
14 -8 15 -16 0 -37 9 -49 21 -18 18 -19 23 -6 42 7 12 34 33 58 46 72 39 130
10 93 -46 -19 -30 -13 -39 15 -23 54 28 -17 150 -88 150 -14 0 -41 -8 -59 -17z"/>
<path d="M507 3383 c-13 -12 -7 -44 9 -50 20 -7 45 22 37 43 -5 14 -35 19 -46
7z"/>
<path d="M586 3381 c-4 -5 -13 -28 -21 -51 -14 -39 -13 -41 3 -36 22 7 142
-39 159 -61 15 -20 16 -19 37 31 20 48 20 57 1 50 -19 -8 -146 42 -162 62 -7
9 -14 11 -17 5z"/>
<path d="M4530 3341 c0 -11 -138 -65 -162 -64 -16 2 -16 -1 -1 -40 20 -51 22
-54 31 -40 13 21 156 72 170 61 17 -14 16 2 -4 52 -15 36 -34 54 -34 31z"/>
<path d="M512 3180 c-10 -40 -8 -47 11 -32 14 12 100 -4 92 -17 -2 -4 -29 -14
-60 -21 -64 -15 -71 -21 -81 -75 -6 -34 -5 -38 7 -28 17 14 157 -20 175 -43
10 -12 13 -11 18 8 10 41 8 49 -11 38 -13 -8 -33 -6 -78 7 l-60 19 80 23 c44
12 86 24 93 26 6 3 12 15 12 28 0 22 -8 26 -85 46 -50 14 -89 30 -94 39 -8 13
-11 10 -19 -18z"/>
<path d="M4597 3167 c-7 -20 -162 -58 -176 -44 -13 13 -14 3 -2 -43 6 -19 14
-53 20 -76 10 -38 13 -40 41 -36 38 5 38 15 -1 29 -51 19 -35 45 41 66 36 10
77 15 91 13 l27 -5 -13 50 c-16 58 -20 66 -28 46z"/>
<path d="M4643 2913 c-14 -9 -51 -15 -102 -16 l-80 -2 6 -45 c6 -50 11 -59 21
-44 11 16 164 35 179 22 10 -8 13 -4 12 18 -1 16 -4 41 -8 55 -6 25 -7 26 -28
12z"/>
<path d="M446 2878 c-9 -44 -8 -51 8 -45 7 3 29 -10 47 -30 l34 -35 -40 8
c-22 4 -43 12 -47 18 -9 13 -15 -5 -20 -57 -3 -32 -1 -36 14 -31 25 7 171 -14
179 -27 3 -6 9 0 12 13 8 27 8 99 0 81 -5 -15 -41 -17 -62 -4 -10 7 -6 11 17
15 16 4 37 15 46 25 17 19 34 86 20 79 -5 -2 -36 -17 -68 -32 -66 -32 -77 -30
-112 22 l-22 31 -6 -31z"/>
<path d="M4672 2734 c-16 -17 -172 -20 -172 -3 0 5 -3 8 -7 6 -5 -3 -6 -29 -4
-59 2 -29 6 -47 8 -40 3 7 21 12 41 12 33 -1 35 -2 17 -12 -44 -24 -65 -52
-65 -85 0 -36 10 -42 30 -17 8 8 33 27 57 41 48 28 55 26 100 -26 l23 -26 0
42 c0 34 -3 42 -17 40 -10 0 -31 8 -47 18 l-29 19 28 8 c18 4 34 3 42 -4 21
-17 25 -4 16 50 -7 42 -10 48 -21 36z"/>
<path d="M560 2602 c0 -5 11 -14 25 -20 27 -12 36 -61 13 -63 -7 -1 -23 -3
-36 -4 -31 -3 -41 24 -17 41 17 13 14 14 -26 14 -35 -1 -40 -3 -26 -11 9 -5
17 -19 17 -29 0 -16 -7 -20 -35 -20 -30 0 -35 3 -35 24 0 13 10 30 23 39 27
18 21 27 -15 20 -28 -5 -28 -6 -28 -84 0 -77 1 -79 23 -75 64 13 160 16 173 5
12 -10 14 2 14 74 0 68 -3 86 -16 91 -23 9 -54 7 -54 -2z"/>
<path d="M457 2342 c-21 -2 -27 -8 -23 -20 3 -9 8 -44 11 -77 4 -33 9 -68 11
-77 6 -20 30 -23 54 -8 11 7 9 11 -13 19 -29 11 -35 26 -14 34 8 3 44 8 80 12
50 5 71 4 83 -6 14 -12 15 -7 9 46 -8 68 -13 77 -26 54 -5 -11 -29 -19 -66
-24 -32 -3 -68 -9 -80 -12 -30 -7 -31 20 -2 40 24 17 15 24 -24 19z"/>
<path d="M4466 2259 c-12 -60 -9 -65 28 -61 45 5 55 -14 12 -22 -39 -7 -60
-29 -70 -70 -6 -25 -5 -28 11 -21 10 4 42 17 71 28 l53 20 24 -23 c14 -13 28
-33 31 -44 7 -21 7 -21 15 -1 12 30 11 67 -2 60 -11 -7 -45 19 -60 46 -7 15
-4 16 28 9 20 -5 39 -14 43 -21 5 -7 12 10 19 40 14 65 14 66 -1 53 -15 -11
-178 15 -178 29 0 23 -18 6 -24 -22z"/>
<path d="M4419 1976 c-17 -8 -30 -29 -43 -69 -25 -77 -13 -95 83 -127 45 -16
71 -30 72 -40 1 -18 25 35 35 76 5 23 4 27 -6 17 -10 -9 -27 -6 -79 13 -36 14
-72 31 -80 38 -16 17 -7 36 18 36 31 0 135 -40 147 -56 10 -12 15 -7 28 32 19
55 19 57 7 50 -5 -4 -20 -2 -33 3 -81 31 -126 39 -149 27z"/>
<path d="M687 1948 c-29 -11 -28 -28 3 -28 20 0 58 -46 47 -57 -4 -3 -49 2
-102 12 -53 9 -98 15 -101 13 -5 -6 44 -139 55 -151 4 -4 21 -2 37 4 l29 12
-32 8 c-28 8 -53 42 -40 55 2 2 41 -3 86 -11 125 -24 125 -25 89 65 -16 41
-33 78 -36 81 -4 4 -19 2 -35 -3z"/>
<path d="M4276 1677 c-20 -35 -36 -69 -36 -74 0 -6 11 -18 25 -27 21 -14 25
-14 25 -2 0 8 -4 18 -10 21 -15 9 -12 45 4 51 22 8 156 -63 156 -84 0 -9 11 2
25 27 26 45 32 66 15 56 -12 -7 -139 59 -157 81 -9 13 -17 5 -47 -49z"/>
<path d="M808 1721 c-5 -15 -149 -83 -164 -77 -8 3 -14 2 -14 -2 1 -14 49 -97
50 -85 0 16 150 92 168 86 17 -6 15 1 -8 47 -21 41 -26 46 -32 31z"/>
<path d="M824 1540 c-11 -4 -33 -23 -48 -41 -35 -41 -31 -70 22 -151 36 -57
52 -70 52 -45 1 17 129 100 146 93 25 -9 15 15 -31 79 -54 76 -82 89 -141 65z
m119 -64 c4 -9 -18 -30 -64 -60 -38 -25 -71 -46 -73 -46 -13 0 -14 37 -1 57
33 50 125 83 138 49z"/>
<path d="M4153 1468 c-71 -76 -68 -109 17 -169 33 -23 60 -49 60 -58 1 -16 39
23 62 63 8 16 8 18 -5 13 -10 -4 -39 11 -75 38 -71 52 -79 62 -60 81 13 13 23
9 77 -27 35 -23 66 -51 70 -62 7 -18 10 -16 39 21 34 43 39 56 20 49 -7 -2
-42 16 -77 40 -35 23 -71 43 -80 43 -9 0 -31 -15 -48 -32z"/>
<path d="M4341 1346 c-16 -19 -6 -36 20 -36 15 0 20 6 17 22 -4 27 -21 33 -37
14z"/>
<path d="M1024 1319 l-19 -22 27 5 c29 5 63 -12 57 -29 -8 -20 -120 -113 -129
-108 -21 13 -8 -14 25 -51 25 -29 34 -34 35 -21 0 23 109 126 134 127 15 0 7
13 -35 58 -30 31 -59 58 -65 60 -5 1 -19 -7 -30 -19z"/>
<path d="M3966 1238 c-32 -35 -56 -71 -56 -83 0 -31 34 -59 65 -53 20 4 25 2
21 -9 -10 -24 13 -53 40 -53 18 0 45 18 87 60 49 47 58 60 42 60 -25 0 -140
114 -131 129 4 6 3 11 -3 11 -5 0 -34 -28 -65 -62z m48 -47 l28 -29 -22 -7
c-27 -9 -66 25 -57 49 9 23 19 20 51 -13z m71 -61 c14 -16 16 -23 6 -33 -16
-16 -45 3 -49 32 -4 27 19 28 43 1z"/>
<path d="M4290 1271 c0 -27 19 -36 37 -18 18 18 9 37 -18 37 -12 0 -19 -7 -19
-19z"/>
<path d="M1210 1167 c0 -20 -109 -137 -128 -137 -12 0 -5 -12 22 -37 33 -30
41 -34 45 -20 3 9 30 43 59 76 38 44 57 59 70 54 9 -3 -1 13 -23 36 -43 46
-45 47 -45 28z"/>
<path d="M3781 1064 c-46 -19 -81 -59 -81 -92 0 -18 15 -49 40 -82 22 -29 40
-60 40 -67 0 -7 3 -13 6 -13 11 0 74 53 74 62 0 5 -4 7 -9 4 -12 -8 -101 112
-101 136 0 11 7 18 20 18 23 0 110 -105 110 -133 0 -16 5 -15 40 10 41 29 50
43 28 43 -7 0 -32 27 -55 59 -48 65 -66 74 -112 55z"/>
<path d="M1373 1028 c8 -22 -23 -63 -70 -91 -38 -23 -56 -30 -93 -36 -7 -1 53
-41 62 -41 4 0 5 6 3 13 -3 6 11 22 31 35 32 21 35 21 30 5 -3 -10 -8 -30 -12
-45 -3 -16 -10 -25 -15 -22 -5 3 -9 1 -9 -5 0 -6 17 -22 37 -36 l38 -25 11 69
c13 74 39 125 60 117 29 -11 12 12 -32 43 -25 17 -44 26 -41 19z"/>
<path d="M3904 879 c-8 -14 21 -43 35 -35 19 12 13 46 -8 46 -11 0 -23 -5 -27
-11z"/>
<path d="M3853 843 c-7 -3 -13 -14 -13 -25 0 -14 6 -19 22 -16 13 2 24 10 26
19 3 18 -15 29 -35 22z"/>
<path d="M1841 688 c13 -47 11 -141 -3 -160 -7 -9 -20 -18 -28 -20 -8 -3 12
-14 45 -25 l60 -20 0 37 c0 29 10 49 39 84 21 26 50 52 65 58 l26 10 -39 14
c-22 8 -42 11 -45 8 -3 -4 0 -9 6 -11 9 -3 4 -16 -15 -40 l-27 -36 -7 39 c-5
28 -2 42 8 50 11 9 6 14 -29 28 -62 23 -67 22 -56 -16z"/>
<path d="M3238 698 c-27 -9 -39 -28 -19 -28 9 0 -4 -63 -17 -84 -8 -14 -32 62
-26 79 5 12 -2 12 -43 -2 -59 -20 -60 -20 -41 -36 20 -15 62 -153 54 -174 -5
-12 -1 -14 21 -10 16 3 41 11 57 17 25 9 27 12 14 23 -9 7 -20 26 -26 44 l-11
32 35 -34 c36 -36 82 -46 114 -25 13 9 12 12 -4 22 -11 6 -39 29 -63 51 l-42
39 15 37 c8 20 22 42 31 49 15 11 15 12 -3 11 -10 0 -31 -5 -46 -11z"/>
<path d="M2357 654 c-4 -4 -7 -16 -7 -26 0 -13 7 -18 26 -18 21 0 25 4 22 22
-3 23 -27 35 -41 22z"/>
<path d="M2066 641 c-2 -3 -6 -18 -10 -33 -7 -33 4 -37 22 -8 12 19 42 28 42
13 0 -5 -8 -45 -17 -90 -11 -53 -22 -83 -30 -83 -32 0 -8 -18 38 -28 66 -16
74 -15 59 2 -9 12 -8 33 5 98 10 46 19 85 21 87 8 8 34 -22 34 -40 0 -31 17
-22 24 13 3 17 5 32 4 33 -9 8 -189 42 -192 36z"/>
<path d="M2434 635 c-8 -19 3 -35 26 -35 19 0 30 17 23 38 -6 17 -42 15 -49
-3z"/>
<path d="M2922 611 c-8 -5 -19 -47 -26 -102 -7 -52 -17 -102 -21 -111 -8 -19
3 -22 43 -12 23 7 32 26 10 21 -8 -1 -12 7 -10 22 3 29 1 27 29 35 28 9 51
-27 32 -50 -14 -17 -7 -18 60 -3 48 10 49 11 31 29 -10 10 -37 54 -60 99 -42
80 -57 92 -88 72z m26 -95 c9 -20 8 -25 -4 -30 -23 -9 -24 -8 -24 24 0 36 13
39 28 6z"/>
<path d="M2297 589 c6 -6 9 -43 5 -99 -5 -86 -4 -88 22 -105 16 -10 48 -18 80
-19 78 -2 93 15 102 115 3 43 11 79 15 79 5 0 9 4 9 9 0 5 -23 11 -51 15 -52
7 -74 1 -51 -13 9 -5 10 -28 5 -85 -7 -85 -24 -116 -50 -94 -13 10 -14 27 -9
92 4 44 11 85 17 92 7 8 -1 13 -28 18 -58 9 -79 8 -66 -5z"/>
<path d="M2613 583 c-47 -4 -69 -16 -44 -25 5 -1 13 -43 17 -92 5 -70 4 -90
-7 -97 -9 -6 5 -9 41 -9 123 1 180 35 180 111 0 74 -48 123 -114 117 -12 -1
-45 -3 -73 -5z m82 -27 c27 -20 34 -135 10 -160 -30 -29 -40 -13 -46 75 -8
104 -4 115 36 85z"/>
</g>
</svg>
